<?xml version="1.0" standalone="no"?>
<!DOCTYPE svg PUBLIC "-//W3C//DTD SVG 20010904//EN"
 "http://www.w3.org/TR/2001/REC-SVG-20010904/DTD/svg10.dtd">
<svg version="1.0" xmlns="http://www.w3.org/2000/svg"
 width="512.000000pt" height="512.000000pt" viewBox="0 0 512.000000 512.000000"
 preserveAspectRatio="xMidYMid meet">

<g transform="translate(0.000000,512.000000) scale(0.100000,-0.100000)"
fill="#000000" stroke="none">
<path d="M2400 5105 c-202 -41 -387 -154 -503 -308 -75 -99 -101 -147 -139
-257 -31 -91 -32 -101 -33 -250 0 -186 12 -238 87 -390 46 -93 63 -116 153
-205 154 -154 298 -224 509 -247 88 -10 119 -9 204 5 330 54 581 272 682 592
49 155 34 452 -26 511 -43 44 -139 24 -163 -33 -9 -23 -8 -44 4 -101 67 -321
-109 -636 -415 -743 -89 -31 -267 -38 -360 -14 -158 41 -311 156 -393 296
-107 183 -114 409 -18 604 74 150 212 269 374 321 83 27 118 29 351 21 31 -1
44 5 62 27 33 38 33 108 1 140 -43 43 -237 59 -377 31z"/>
<path d="M3017 4919 c-9 -5 -24 -24 -33 -41 -42 -80 42 -173 126 -138 98 40
69 191 -37 190 -21 0 -46 -5 -56 -11z"/>
<path d="M2631 4375 l-126 -124 -71 69 c-65 63 -76 70 -112 70 -58 0 -102 -45
-102 -103 0 -39 5 -47 118 -159 115 -115 119 -118 163 -118 44 0 45 1 217 173
163 163 172 174 172 211 0 51 -52 106 -101 106 -28 0 -49 -16 -158 -125z"/>
<path d="M3855 3721 c-16 -4 -43 -15 -60 -23 -49 -26 -324 -297 -347 -342 -20
-39 -25 -92 -16 -177 3 -22 -19 -47 -137 -158 -182 -171 -219 -191 -382 -202
-109 -7 -176 -22 -268 -59 -26 -11 -41 -9 -115 15 -113 36 -229 43 -332 20
-63 -14 -87 -15 -129 -6 -74 16 -98 34 -244 181 l-130 130 3 64 c6 103 -15
137 -191 312 -161 160 -199 184 -287 184 -81 0 -115 -29 -577 -492 -374 -376
-443 -449 -452 -483 -15 -56 -14 -93 6 -151 14 -41 42 -75 167 -201 166 -167
205 -192 294 -193 l52 0 204 -202 203 -203 7 -69 c8 -80 25 -126 67 -179 l31
-38 -82 -85 c-98 -102 -130 -163 -130 -248 0 -32 5 -76 11 -96 27 -89 139
-190 229 -205 35 -6 39 -10 49 -48 27 -108 132 -206 239 -223 36 -6 42 -10 48
-38 21 -101 126 -202 231 -224 34 -7 38 -12 56 -67 28 -83 120 -176 197 -199
68 -20 112 -20 180 0 45 13 69 31 162 122 l109 106 97 -97 c111 -111 161 -138
251 -138 106 -1 186 36 245 114 28 37 56 107 56 142 0 18 10 24 61 39 51 14
71 27 118 74 57 57 91 124 91 179 0 17 6 23 23 23 13 0 52 14 86 31 75 37 125
99 148 181 16 56 16 57 64 68 182 44 279 247 197 414 l-21 45 26 58 c32 74 47
154 47 262 0 89 16 177 41 223 8 15 81 97 163 184 l150 156 51 -6 c101 -12
135 7 309 171 181 170 212 216 204 307 -2 29 -13 69 -24 88 -29 55 -859 922
-901 942 -42 20 -107 28 -148 17z m416 -573 c195 -205 379 -399 408 -431 l55
-58 -80 -80 c-93 -96 -190 -179 -207 -179 -14 0 -810 836 -815 855 -6 26 241
265 273 265 7 0 171 -168 366 -372z m-2973 251 c56 -47 202 -205 202 -218 0
-3 -189 -195 -419 -425 l-420 -419 -38 29 c-56 42 -222 214 -229 237 -5 16 71
97 407 433 228 228 419 414 425 414 7 0 39 -23 72 -51z m2637 -767 c148 -156
271 -287 273 -291 1 -4 -65 -78 -148 -164 -221 -231 -236 -262 -249 -506 -5
-86 -12 -164 -16 -174 -6 -15 -56 30 -284 256 -152 150 -296 287 -321 304
-121 82 -241 123 -356 123 -93 0 -162 -34 -283 -139 -103 -89 -213 -151 -268
-151 -86 0 -149 89 -110 156 16 28 502 490 547 520 47 31 139 54 220 54 174 1
276 52 482 245 l153 144 45 -47 c24 -26 166 -175 315 -330z m-2231 170 c163
-159 224 -197 350 -215 64 -9 90 -8 169 7 83 17 188 19 202 4 3 -2 -94 -103
-214 -224 -250 -251 -258 -263 -249 -398 12 -191 171 -308 374 -276 110 18
202 67 299 160 140 134 212 149 365 74 70 -34 100 -61 422 -382 191 -190 352
-358 359 -374 25 -60 -51 -141 -114 -122 -12 3 -115 98 -228 210 -173 172
-210 204 -235 204 -66 0 -124 -68 -109 -127 4 -17 84 -106 211 -233 142 -144
204 -214 204 -229 0 -53 -47 -100 -99 -101 -32 0 -52 17 -236 200 -132 131
-211 203 -231 209 -78 22 -150 -68 -113 -142 6 -12 101 -112 210 -223 173
-174 199 -204 199 -231 0 -64 -79 -120 -132 -93 -13 7 -115 104 -228 215 -113
111 -219 210 -235 218 -17 8 -47 18 -68 22 -34 7 -38 11 -48 51 -27 106 -158
223 -251 224 -22 0 -29 6 -34 27 -27 113 -136 217 -247 238 -29 6 -37 12 -37
29 0 36 -49 122 -90 160 -68 61 -115 80 -200 81 -95 0 -143 -22 -239 -111 -69
-64 -70 -65 -82 -42 -7 13 -18 57 -26 98 -22 125 -43 156 -253 365 l-190 190
337 337 c186 186 340 338 342 338 2 0 68 -62 145 -138z m29 -1272 c18 -20 27
-41 27 -63 0 -29 -23 -55 -214 -246 -209 -208 -216 -214 -248 -207 -44 8 -88
57 -88 98 0 29 24 57 214 247 209 209 215 214 248 207 18 -3 45 -19 61 -36z
m279 -267 c34 -32 42 -66 24 -101 -8 -15 -105 -117 -215 -226 l-200 -199 -37
6 c-48 8 -83 43 -91 91 l-6 37 204 205 c112 113 213 210 224 214 29 13 66 2
97 -27z m289 -262 c22 -22 29 -39 29 -68 0 -36 -10 -48 -207 -245 -192 -192
-210 -208 -243 -208 -55 1 -100 48 -100 106 0 21 41 67 208 235 197 199 209
209 245 209 29 0 46 -7 68 -29z m268 -265 c29 -15 51 -53 51 -88 0 -25 -388
-421 -430 -438 -60 -25 -143 48 -127 111 4 13 98 115 210 227 180 179 207 202
236 202 17 0 44 -6 60 -14z m303 -293 c42 -43 81 -88 87 -100 32 -64 -10 -133
-82 -133 -36 0 -47 7 -123 82 -46 45 -84 86 -84 91 0 10 111 135 120 136 3 1
40 -34 82 -76z"/>
<path d="M2559 1441 c-49 -49 -38 -125 23 -157 80 -42 173 42 138 126 -27 65
-110 81 -161 31z"/>
</g>
</svg>
